<svg viewBox="0 0 40 40" fill="none" xmlns="http://www.w3.org/2000/svg">
  <style>
    /* Favicons render without the app's CSS vars, so colors are baked in.
       The mark follows the browser chrome; the cinnabar decision point
       stays red in both — the single accent, per the design system. */
    .mark { stroke: #2c2622; }
    @media (prefers-color-scheme: dark) {
      .mark { stroke: #e2d6bf; }
    }
  </style>
  <path
    d="M20 4.75C29.2 4.75 35.25 10.8 35.25 20S29.2 35.25 20 35.25 4.75 29.2 4.75 20 10.8 4.75 20 4.75Z"
    class="mark" stroke-width="1.15" stroke-opacity="0.32" />
  <path
    d="M12.15 20C14.95 15.6 17.6 13.45 20 13.45S25.05 15.6 27.85 20C25.05 24.4 22.4 26.55 20 26.55S14.95 24.4 12.15 20Z"
    fill="rgba(198, 77, 63, 0.12)"
    class="mark" stroke-width="1.25" stroke-opacity="0.72" stroke-linejoin="round" />
  <path
    d="M14.1 29.15C17.05 26.2 18.2 22.4 18.2 15.55V9.25"
    class="mark" stroke-width="1.45" stroke-linecap="round" stroke-linejoin="round" />
  <path
    d="M25.9 10.85C22.95 13.8 21.8 17.6 21.8 24.45v6.3"
    class="mark" stroke-width="1.45" stroke-linecap="round" stroke-linejoin="round" />
  <path
    d="M20 9.25v21.5"
    class="mark" stroke-width="1.05" stroke-linecap="round" stroke-opacity="0.48" />
  <circle cx="20" cy="20" r="3.05" fill="#c64d3f" />
  <circle cx="20" cy="20" r="1.05" fill="#f1e8d5" fill-opacity="0.82" />
</svg>
